<?xml version="1.0" encoding="utf-8"?>
<!-- Generator: Adobe Illustrator 17.0.0, SVG Export Plug-In . SVG Version: 6.00 Build 0)  -->
<!DOCTYPE svg PUBLIC "-//W3C//DTD SVG 1.1//EN" "http://www.w3.org/Graphics/SVG/1.1/DTD/svg11.dtd">
<svg version="1.1" id="Layer_1" xmlns="http://www.w3.org/2000/svg" xmlns:xlink="http://www.w3.org/1999/xlink" x="0px" y="0px"
	 width="612px" height="985px" viewBox="0 0 612 985" enable-background="new 0 0 612 985" xml:space="preserve">
<g>
	<g>
		<path fill="#FEFEFE" d="M563,748.971c-170.606,0-341.211,0-511.908,0c0-170.535,0-341.099,0-511.817
			c170.575,0,341.242,0,511.908,0C563,407.692,563,578.317,563,748.971z M198.041,595.214c-0.572-1.356-0.847-1.936-1.066-2.537
			c-11.165-30.625-22.322-61.252-33.491-91.876c-1.879-5.151-5.036-8.332-11.073-8.15c-10.301,0.31-20.658-0.313-30.912,0.482
			c-17.691,1.371-33.069,8.121-45.526,21.241c-3.663,3.858-3.747,6.671-1.084,11.135c28.818,48.308,57.333,96.797,86.151,145.106
			c7.146,11.979,14.955,23.574,22.797,35.116c1.207,1.777,4.154,2.948,6.457,3.275c3.756,0.534,7.664,0.37,11.467,0.033
			c1.54-0.136,3.501-1.124,4.373-2.359c20.851-29.494,42.287-58.607,62.187-88.733c45.406-68.737,94.923-134.352,148.441-196.897
			c39.939-46.676,81.001-92.39,121.544-138.55c1.317-1.499,2.423-3.183,3.967-5.232c-1.423-0.087-1.952-0.264-2.368-0.118
			c-1.41,0.493-2.872,0.944-4.153,1.688c-17.821,10.342-36.224,19.824-53.288,31.297c-34.014,22.87-63.493,51.302-91.915,80.548
			c-47.116,48.483-93.218,97.952-139.6,147.145C233.253,556.599,215.962,575.752,198.041,595.214z"/>
		<path fill="#2277D5" d="M198.041,595.214c17.921-19.461,35.212-38.615,52.91-57.385c46.382-49.193,92.484-98.662,139.6-147.145
			c28.422-29.246,57.9-57.677,91.915-80.548c17.064-11.473,35.467-20.956,53.288-31.297c1.281-0.744,2.742-1.195,4.153-1.688
			c0.416-0.146,0.945,0.031,2.368,0.118c-1.544,2.048-2.65,3.732-3.967,5.232c-40.543,46.159-81.605,91.874-121.544,138.55
			c-53.518,62.545-103.035,128.16-148.441,196.897c-19.901,30.126-41.336,59.239-62.187,88.733
			c-0.873,1.234-2.834,2.222-4.373,2.359c-3.803,0.337-7.711,0.502-11.467-0.033c-2.302-0.328-5.249-1.498-6.457-3.275
			c-7.842-11.542-15.651-23.137-22.797-35.116c-28.818-48.308-57.333-96.798-86.151-145.106c-2.663-4.464-2.579-7.277,1.084-11.135
			c12.458-13.12,27.835-19.87,45.526-21.241c10.254-0.795,20.61-0.172,30.912-0.482c6.037-0.182,9.194,2.999,11.073,8.15
			c11.169,30.623,22.325,61.251,33.491,91.876C197.194,593.277,197.469,593.858,198.041,595.214z"/>
	</g>
</g>
</svg>
